<svg xmlns="http://www.w3.org/2000/svg" width="26" height="26" fill="none" viewBox="0 0 26 26">
  <path fill="#3F494B" d="M15.05 13.05c0-1.15.7-2.15 1.65-2.65-.15-1.95-1.75-3.45-3.75-3.45-2.05 0-3.75 1.7-3.75 3.75s1.7 3.75 3.75 3.75c.75 0 1.5-.25 2.05-.65v-.75h.05Z"/>
  <path fill="#3F494B" d="M15.05 18.2v-.95c0-.35.05-.65.15-.95H6.4c0-1.45-1.15-2.65-2.65-2.65v-5.6C5.2 8.05 6.4 6.9 6.4 5.4h13.15c0 1.45 1.15 2.65 2.65 2.65v2h1.9c.35 0 .65.05.95.15V4.85c0-1.25-1-2.25-2.25-2.25H3.25C2 2.6 1 3.6 1 4.85v12.1c0 1.25 1 2.25 2.25 2.25h12c-.1-.3-.2-.65-.2-1ZM25 22.45c0 .5-.5.95-1 .95h-6c-.5 0-.95-.45-.95-.95v-.95c0-.5.45-.95.95-.95h6.05c.5 0 .95.45.95.95v.95Z"/>
  <path fill="#3F494B" d="M25 18.25c0 .5-.5.95-1 .95h-6c-.5 0-.95-.45-.95-.95v-.95c0-.5.45-.95.95-.95h6.05c.5 0 .95.45.95.95v.95ZM25 14c0 .5-.5.95-1 .95h-6c-.5 0-.95-.45-.95-.95v-.95c0-.5.45-.95.95-.95h6.05c.5 0 .95.45.95.95V14Z"/>
</svg>
