<svg xmlns="http://www.w3.org/2000/svg" width="26" height="26" fill="none" viewBox="0 0 26 26">
  <path fill="#3F494B" d="M23.52 13.77a1.083 1.083 0 0 1-1.54 0l-.313-.315v8.537a1.918 1.918 0 0 1-1.983 1.841h-2.35a1.083 1.083 0 0 1-1.084-1.083v-6.392a1.083 1.083 0 0 0-1.083-1.083h-4.334a1.084 1.084 0 0 0-1.083 1.083v6.392a1.083 1.083 0 0 1-1.083 1.083H6.316a1.918 1.918 0 0 1-1.983-1.841v-8.537l-.314.314a1.084 1.084 0 0 1-1.538 0 1.083 1.083 0 0 1 0-1.538l9.75-9.75a1.085 1.085 0 0 1 1.538 0l9.75 9.75a1.085 1.085 0 0 1 0 1.538Z"/>
</svg>
