<svg xmlns="http://www.w3.org/2000/svg" width="15" height="15" fill="none" viewBox="0 0 15 15">
  <g clip-path="url(#a)">
    <path fill="#0F0F0F" d="M1.875 3.547V1.875a.625.625 0 0 0-1.25 0v2.5c0 .69.56 1.25 1.25 1.25h2.5a.625.625 0 1 0 0-1.25H2.826a.73.73 0 0 0 .036-.049 5.62 5.62 0 1 1-.946 3.802c-.039-.343-.318-.623-.663-.623-.345 0-.63.281-.6.625a6.875 6.875 0 1 0 1.222-4.583Z"/>
    <path fill="#0F0F0F" d="M7.5 3.125a.625.625 0 0 0-.625.625v4.042s0 .163.08.285a.622.622 0 0 0 .243.257l2.888 1.667a.625.625 0 0 0 .625-1.082L8.125 7.426V3.75a.625.625 0 0 0-.625-.625Z"/>
  </g>
  <defs>
    <clipPath id="a">
      <path fill="#fff" d="M0 0h15v15H0z"/>
    </clipPath>
  </defs>
</svg>
